<svg width="259" height="97" xmlns="http://www.w3.org/2000/svg" xmlns:xlink="http://www.w3.org/1999/xlink" xml:space="preserve" overflow="hidden"><defs><clipPath id="clip0"><rect x="0" y="0" width="259" height="97"/></clipPath></defs><g clip-path="url(#clip0)"><path d="M185.149 135.221 189.309 128.044 186.501 128.044 187.853 125.651 194.406 125.651 193.054 128.044 190.661 128.044 186.501 135.325C191.182 135.325 195.03 131.476 195.03 126.796 195.03 122.115 191.182 118.266 186.501 118.266 186.189 118.266 185.773 118.266 185.461 118.37L181.3 125.547 186.501 125.547 185.149 127.94 178.596 127.94 183.9 118.682C180.468 119.827 177.971 122.947 177.971 126.796 177.971 131.06 181.092 134.597 185.149 135.221M186.501 117.122C191.806 117.122 196.174 121.491 196.174 126.796 196.174 132.1 191.806 136.469 186.501 136.469 181.196 136.469 176.827 132.1 176.827 126.796 176.723 121.491 181.092 117.122 186.501 117.122" fill-rule="evenodd" transform="matrix(1 0 0 1.00274 -47.4313 -40.4688)"/><path d="M306.327 125.339C306.119 125.235 305.911 125.235 305.703 125.235 305.495 125.235 305.287 125.131 304.975 125.131L304.351 125.131C304.143 125.131 303.935 125.235 303.831 125.339 303.623 125.443 303.519 125.547 303.311 125.651 303.207 125.755 303.103 125.963 302.999 126.067 302.895 126.276 302.895 126.484 302.895 126.692 302.895 126.9 302.895 127.108 302.999 127.212 303.103 127.316 303.207 127.524 303.311 127.628 303.415 127.732 303.519 127.836 303.727 127.94 303.831 128.044 304.039 128.148 304.143 128.148 304.247 128.252 304.351 128.356 304.455 128.46 304.559 128.564 304.559 128.668 304.559 128.772 304.559 128.876 304.559 128.98 304.455 128.98 304.455 129.084 304.351 129.084 304.247 129.188 304.143 129.188 304.039 129.292 303.935 129.292L303.623 129.292C303.415 129.292 303.311 129.292 303.207 129.188 303.103 129.188 302.895 129.084 302.791 129.084 302.687 128.98 302.583 128.98 302.479 128.876L302.167 129.916C302.375 130.02 302.583 130.124 302.895 130.124 303.103 130.124 303.415 130.228 303.623 130.228L304.247 130.228C304.455 130.228 304.663 130.124 304.871 130.02 305.079 129.916 305.183 129.812 305.391 129.708 305.495 129.604 305.599 129.396 305.703 129.292 305.807 129.084 305.807 128.876 305.807 128.668 305.807 128.46 305.807 128.252 305.703 128.148 305.599 128.044 305.495 127.836 305.391 127.732 305.287 127.628 305.183 127.524 304.975 127.42 304.871 127.316 304.663 127.212 304.559 127.212 304.455 127.108 304.351 127.004 304.247 127.004 304.143 126.9 304.143 126.796 304.143 126.692 304.143 126.588 304.143 126.484 304.247 126.484 304.247 126.38 304.351 126.38 304.455 126.38 304.559 126.38 304.663 126.276 304.767 126.276L305.079 126.276C305.287 126.276 305.391 126.276 305.599 126.38 305.807 126.38 305.911 126.484 306.119 126.588L306.327 125.339ZM298.63 127.212C298.734 127.004 298.838 126.796 298.942 126.588 299.046 126.38 299.15 126.276 299.358 126.171 299.566 126.067 299.774 126.067 299.982 126.067 300.19 126.067 300.398 126.171 300.606 126.276 300.71 126.38 300.814 126.588 300.814 126.9L300.814 127.316 298.63 127.316 298.63 127.212ZM301.855 128.044C301.855 127.836 301.959 127.732 301.959 127.524L301.959 127.004C301.959 126.588 301.855 126.276 301.751 125.963 301.543 125.651 301.335 125.443 301.022 125.339 300.71 125.235 300.398 125.131 299.982 125.131 299.67 125.131 299.358 125.235 299.046 125.339 298.734 125.443 298.526 125.547 298.318 125.755 298.11 125.963 297.902 126.171 297.694 126.38 297.486 126.588 297.382 126.9 297.278 127.212 297.174 127.524 297.174 127.836 297.174 128.044 297.174 128.356 297.278 128.668 297.382 128.98 297.486 129.292 297.694 129.5 297.902 129.604 298.11 129.812 298.318 129.916 298.63 130.02 298.942 130.124 299.254 130.124 299.566 130.124 299.774 130.124 300.086 130.124 300.294 130.02 300.502 130.02 300.814 129.916 301.022 129.812L301.231 128.876C301.022 128.98 300.71 129.084 300.502 129.084 300.294 129.188 299.982 129.188 299.774 129.188 299.462 129.188 299.254 129.188 299.046 129.084 298.838 128.98 298.734 128.876 298.63 128.668 298.526 128.46 298.526 128.252 298.526 127.94L301.855 127.94 301.855 128.044ZM297.382 125.339C297.174 125.235 297.07 125.235 296.758 125.235 296.55 125.235 296.342 125.131 296.134 125.131 295.718 125.131 295.302 125.235 294.99 125.339 294.677 125.443 294.365 125.651 294.053 125.963 293.845 126.276 293.637 126.588 293.533 126.9 293.429 127.212 293.325 127.628 293.325 128.044 293.325 128.46 293.429 128.772 293.533 129.084 293.741 129.396 293.949 129.604 294.261 129.812 294.574 130.02 294.886 130.02 295.302 130.02L295.926 130.02C296.134 130.02 296.342 129.916 296.55 129.812L296.654 128.876C296.55 128.98 296.446 128.98 296.342 128.98 296.238 128.98 296.134 129.084 296.03 129.084L295.718 129.084C295.51 129.084 295.302 129.084 295.198 128.98 295.094 128.876 294.99 128.772 294.886 128.668 294.782 128.564 294.782 128.46 294.677 128.252L294.677 127.836C294.677 127.628 294.677 127.42 294.782 127.212 294.886 127.004 294.99 126.796 295.094 126.588 295.198 126.38 295.406 126.276 295.614 126.171 295.822 126.067 296.03 125.963 296.238 125.963 296.446 125.963 296.55 125.963 296.758 126.067 296.862 126.067 297.07 126.171 297.174 126.276L297.382 125.339ZM291.765 124.403 293.013 124.403 293.221 123.259 291.973 123.259 291.765 124.403ZM290.517 130.02 291.765 130.02 292.805 125.235 291.557 125.235 290.517 130.02ZM286.564 130.02 287.916 130.02 290.725 125.235 289.373 125.235 287.5 128.772 286.98 125.235 285.732 125.235 286.564 130.02ZM281.78 130.02 283.028 130.02 283.444 127.836C283.444 127.628 283.548 127.42 283.652 127.316 283.756 127.108 283.86 127.004 283.964 126.796 284.068 126.692 284.172 126.484 284.38 126.484 284.588 126.38 284.692 126.38 285.004 126.38L285.212 126.38C285.316 126.38 285.42 126.38 285.42 126.484L285.628 125.235 285.212 125.235C285.108 125.235 284.9 125.235 284.796 125.339 284.692 125.443 284.484 125.443 284.38 125.547 284.276 125.651 284.172 125.755 284.068 125.859 283.964 125.963 283.86 126.067 283.86 126.276L284.068 125.339 282.924 125.339C282.924 125.547 282.82 125.755 282.82 125.963L281.78 130.02ZM278.035 127.212C278.139 127.004 278.243 126.796 278.347 126.588 278.451 126.38 278.555 126.276 278.763 126.171 278.971 126.067 279.179 126.067 279.387 126.067 279.595 126.067 279.803 126.171 280.011 126.276 280.115 126.38 280.219 126.588 280.219 126.9L280.219 127.316 278.035 127.316 278.035 127.212ZM281.259 128.044C281.259 127.836 281.363 127.732 281.363 127.524L281.363 127.004C281.363 126.588 281.259 126.276 281.155 125.963 280.947 125.651 280.739 125.443 280.427 125.339 280.115 125.235 279.803 125.131 279.387 125.131 279.075 125.131 278.763 125.235 278.451 125.339 278.139 125.443 277.931 125.547 277.723 125.755 277.515 125.963 277.307 126.171 277.099 126.38 276.891 126.588 276.787 126.9 276.683 127.212 276.579 127.524 276.579 127.836 276.579 128.044 276.579 128.356 276.683 128.668 276.787 128.98 276.891 129.292 277.099 129.5 277.307 129.604 277.515 129.812 277.723 129.916 278.035 130.02 278.347 130.124 278.659 130.124 278.971 130.124 279.179 130.124 279.491 130.124 279.699 130.02 279.907 130.02 280.219 129.916 280.427 129.812L280.635 128.876C280.427 128.98 280.115 129.084 279.907 129.084 279.699 129.188 279.387 129.188 279.179 129.188 278.867 129.188 278.659 129.188 278.451 129.084 278.243 128.98 278.139 128.876 278.035 128.668 277.931 128.46 277.931 128.252 277.931 127.94L281.259 127.94 281.259 128.044ZM276.371 123.779C276.059 123.675 275.851 123.571 275.539 123.571 275.227 123.571 275.018 123.467 274.706 123.467 274.498 123.467 274.186 123.467 273.978 123.571 273.77 123.571 273.562 123.675 273.354 123.779 273.146 123.883 272.938 123.987 272.834 124.195 272.73 124.299 272.522 124.507 272.522 124.715 272.418 124.923 272.418 125.131 272.418 125.443 272.418 125.651 272.418 125.859 272.522 126.067 272.626 126.276 272.73 126.38 272.834 126.484 272.938 126.588 273.146 126.692 273.25 126.796 273.458 126.9 273.562 127.004 273.77 127.108 273.978 127.212 274.082 127.316 274.186 127.42 274.29 127.524 274.394 127.628 274.498 127.732 274.602 127.836 274.602 128.044 274.602 128.148 274.602 128.356 274.602 128.46 274.498 128.564 274.394 128.668 274.29 128.772 274.186 128.876 274.082 128.98 273.978 128.98 273.77 129.084 273.666 129.084 273.458 129.188 273.354 129.188 273.146 129.188 272.938 129.188 272.834 129.084 272.626 129.084 272.522 128.98 272.314 128.876 272.106 128.772 272.002 128.772 271.794 128.668L271.482 129.812C271.794 129.916 272.106 130.02 272.418 130.124 272.73 130.228 273.042 130.228 273.354 130.228 273.666 130.228 273.874 130.228 274.186 130.124 274.498 130.124 274.706 130.02 274.914 129.916 275.122 129.812 275.331 129.708 275.539 129.5 275.747 129.292 275.851 129.084 275.955 128.876 276.059 128.668 276.059 128.356 276.059 128.044 276.059 127.836 276.059 127.524 275.955 127.42 275.851 127.212 275.747 127.108 275.643 126.9 275.539 126.796 275.331 126.692 275.227 126.484 275.018 126.38 274.914 126.276 274.706 126.171 274.498 126.067 274.394 125.963 274.29 125.859 274.186 125.755 274.082 125.651 273.978 125.547 273.874 125.443 273.874 125.339 273.874 125.131 273.874 125.027 273.874 124.923 273.978 124.819 274.082 124.715 274.082 124.611 274.29 124.611 274.394 124.507 274.498 124.507 274.602 124.507L275.539 124.507C275.747 124.507 275.851 124.611 275.955 124.611 276.059 124.611 276.267 124.715 276.371 124.819L276.371 123.779ZM264.097 125.235 264.929 130.228C264.825 130.436 264.617 130.644 264.513 130.748 264.409 130.852 264.305 130.956 264.201 131.06 264.097 131.06 263.993 131.164 263.889 131.164L263.577 131.164C263.473 131.164 263.369 131.164 263.369 131.06L263.057 131.996C263.161 131.996 263.369 132.1 263.473 132.1L263.889 132.1C264.201 132.1 264.409 132.1 264.617 131.996 264.825 131.892 265.033 131.788 265.137 131.684 265.241 131.58 265.449 131.372 265.553 131.268 265.657 131.06 265.761 130.956 265.865 130.748L269.09 125.235 267.737 125.235 265.865 128.772 265.449 125.235 264.097 125.235ZM261.704 127.108 261.704 127.628C261.704 127.836 261.6 127.94 261.496 128.148 261.392 128.356 261.288 128.46 261.184 128.564 261.08 128.668 260.976 128.772 260.768 128.876 260.664 128.98 260.456 128.98 260.248 128.98 260.04 128.98 259.936 128.876 259.832 128.876 259.728 128.772 259.624 128.668 259.624 128.46 259.52 128.252 259.52 128.148 259.52 127.94L259.52 127.42C259.52 127.212 259.624 127.108 259.624 126.9 259.728 126.692 259.728 126.588 259.832 126.484 259.936 126.38 260.04 126.276 260.144 126.171 260.248 126.067 260.456 126.067 260.664 126.067 260.872 126.067 260.976 126.067 261.184 126.171 261.288 126.276 261.392 126.38 261.496 126.484 261.704 126.796 261.704 126.9 261.704 127.108ZM257.856 131.788C258.168 131.892 258.48 131.996 258.792 131.996 259.104 131.996 259.416 132.1 259.728 132.1 260.144 132.1 260.56 131.996 260.872 131.892 261.184 131.788 261.496 131.58 261.704 131.372 261.912 131.164 262.12 130.852 262.225 130.54 262.329 130.228 262.433 129.916 262.537 129.5L263.265 125.859C263.265 125.755 263.369 125.547 263.369 125.443 263.369 125.339 263.369 125.235 263.473 125.131L262.225 125.131 262.12 125.859C262.016 125.651 261.912 125.547 261.704 125.443 261.6 125.339 261.392 125.235 261.184 125.131 260.976 125.027 260.768 125.027 260.56 125.027 260.248 125.027 259.936 125.131 259.728 125.235 259.52 125.339 259.208 125.443 259.104 125.651 258.896 125.859 258.792 126.067 258.584 126.276 258.48 126.484 258.376 126.796 258.272 127.004 258.168 127.316 258.168 127.524 258.168 127.836 258.168 128.148 258.168 128.356 258.272 128.564 258.376 128.772 258.48 128.98 258.584 129.188 258.688 129.396 258.896 129.5 259.104 129.604 259.312 129.708 259.52 129.812 259.832 129.812 260.04 129.812 260.248 129.812 260.456 129.708 260.664 129.604 260.872 129.5 260.976 129.396 261.184 129.292 261.288 129.084 261.392 128.876 261.288 129.084 261.288 129.292 261.184 129.5 261.08 129.708 261.08 129.916 260.976 130.02 260.872 130.228 260.768 130.332 260.664 130.436 260.56 130.54 260.352 130.644 260.248 130.748 260.04 130.852 259.832 130.852 259.624 130.852L259.104 130.852C258.896 130.852 258.792 130.748 258.584 130.748 258.376 130.644 258.272 130.644 258.064 130.54L257.856 131.788ZM255.359 125.131C254.943 125.131 254.631 125.235 254.215 125.339 253.903 125.443 253.591 125.651 253.279 125.963 253.071 126.171 252.863 126.484 252.655 126.9 252.551 127.212 252.447 127.628 252.447 128.044 252.447 128.46 252.551 128.876 252.759 129.188 252.967 129.5 253.175 129.812 253.487 129.916 253.799 130.124 254.215 130.228 254.631 130.228 255.047 130.228 255.463 130.124 255.775 130.02 256.088 129.916 256.4 129.708 256.712 129.396 256.92 129.188 257.128 128.876 257.336 128.46 257.44 128.148 257.544 127.732 257.544 127.316 257.544 127.004 257.44 126.692 257.336 126.484 257.232 126.276 257.128 125.963 256.92 125.859 256.712 125.651 256.504 125.547 256.192 125.443 255.984 125.235 255.671 125.131 255.359 125.131ZM254.839 129.188C254.631 129.188 254.423 129.084 254.319 129.084 254.215 128.98 254.111 128.876 254.007 128.668 253.903 128.46 253.903 128.356 253.903 128.044 253.903 127.836 253.903 127.732 254.007 127.524 254.007 127.316 254.111 127.212 254.215 127.004 254.319 126.796 254.423 126.692 254.527 126.588 254.631 126.484 254.735 126.38 254.943 126.276 255.151 126.171 255.255 126.171 255.463 126.171 255.671 126.171 255.775 126.171 255.88 126.276 255.984 126.38 256.088 126.38 256.192 126.484 256.296 126.588 256.296 126.692 256.296 126.796L256.296 127.212C256.296 127.42 256.296 127.524 256.192 127.732 256.192 127.94 256.088 128.044 255.984 128.252 255.88 128.46 255.775 128.564 255.671 128.668 255.567 128.772 255.463 128.876 255.255 128.98 255.151 129.188 255.047 129.188 254.839 129.188ZM249.743 130.02 250.991 130.02 252.447 123.051 251.199 123.051 249.743 130.02ZM247.142 125.131C246.726 125.131 246.414 125.235 245.998 125.339 245.686 125.443 245.374 125.651 245.062 125.963 244.854 126.171 244.646 126.484 244.438 126.9 244.334 127.212 244.23 127.628 244.23 128.044 244.23 128.46 244.334 128.876 244.542 129.188 244.75 129.5 244.958 129.812 245.27 129.916 245.582 130.124 245.998 130.228 246.414 130.228 246.83 130.228 247.246 130.124 247.558 130.02 247.87 129.916 248.182 129.708 248.494 129.396 248.702 129.188 248.91 128.876 249.118 128.46 249.223 128.148 249.327 127.732 249.327 127.316 249.327 127.004 249.223 126.692 249.118 126.484 249.014 126.276 248.91 125.963 248.702 125.859 248.494 125.651 248.286 125.547 247.974 125.443 247.766 125.235 247.454 125.131 247.142 125.131ZM246.518 129.188C246.31 129.188 246.102 129.084 245.998 129.084 245.894 128.98 245.79 128.876 245.686 128.668 245.582 128.46 245.582 128.356 245.582 128.044 245.582 127.836 245.582 127.732 245.686 127.524 245.686 127.316 245.79 127.212 245.894 127.004 245.998 126.796 246.102 126.692 246.206 126.588 246.31 126.484 246.414 126.38 246.622 126.276 246.83 126.171 246.934 126.171 247.142 126.171 247.35 126.171 247.454 126.171 247.558 126.276 247.662 126.38 247.766 126.38 247.87 126.484 247.974 126.588 247.974 126.692 247.974 126.796L247.974 127.212C247.974 127.42 247.974 127.524 247.87 127.732 247.87 127.94 247.766 128.044 247.662 128.252 247.558 128.46 247.454 128.564 247.35 128.668 247.246 128.772 247.142 128.876 246.934 128.98 246.934 129.188 246.726 129.188 246.518 129.188ZM238.405 130.02 239.653 130.02 240.173 127.628C240.173 127.42 240.277 127.316 240.277 127.108 240.381 126.9 240.381 126.796 240.485 126.588 240.589 126.484 240.693 126.276 240.901 126.276 241.005 126.171 241.213 126.171 241.421 126.171 241.525 126.171 241.629 126.171 241.733 126.276 241.837 126.38 241.941 126.38 241.941 126.484 242.045 126.588 242.045 126.692 242.045 126.796L242.045 127.316C242.045 127.524 241.941 127.628 241.941 127.836L241.525 130.124 242.773 130.124 243.294 127.836C243.294 127.732 243.398 127.524 243.398 127.316 243.398 127.108 243.398 127.004 243.502 126.796 243.502 126.484 243.398 126.171 243.294 125.963 243.19 125.755 242.982 125.547 242.773 125.443 242.565 125.339 242.253 125.235 241.941 125.235 241.733 125.235 241.629 125.235 241.421 125.339 241.213 125.339 241.109 125.443 241.005 125.547 240.901 125.651 240.693 125.755 240.589 125.859L240.693 125.443 239.445 125.443 239.445 125.755C239.445 125.859 239.445 125.963 239.341 126.171L238.405 130.02ZM232.788 130.02 234.036 130.02 234.556 127.628C234.556 127.42 234.66 127.316 234.66 127.108 234.764 126.9 234.764 126.796 234.868 126.588 234.972 126.484 235.076 126.276 235.284 126.276 235.388 126.171 235.596 126.171 235.804 126.171 235.908 126.171 236.012 126.171 236.116 126.276 236.22 126.38 236.324 126.38 236.324 126.484 236.429 126.588 236.429 126.692 236.429 126.796L236.429 127.316C236.429 127.524 236.324 127.628 236.324 127.836L235.908 130.124 237.157 130.124 237.677 127.836C237.677 127.732 237.781 127.524 237.781 127.316 237.781 127.108 237.781 127.004 237.885 126.796 237.885 126.484 237.781 126.171 237.677 125.963 237.573 125.755 237.365 125.547 237.157 125.443 236.949 125.339 236.637 125.235 236.324 125.235 236.116 125.235 236.012 125.235 235.804 125.339 235.596 125.339 235.492 125.443 235.388 125.547 235.284 125.651 235.076 125.755 234.972 125.859L235.596 123.259 234.348 123.259 232.788 130.02ZM232.892 125.339C232.684 125.235 232.58 125.235 232.268 125.235 232.06 125.235 231.852 125.131 231.644 125.131 231.228 125.131 230.812 125.235 230.5 125.339 230.188 125.443 229.876 125.651 229.563 125.963 229.355 126.276 229.147 126.588 229.043 126.9 228.939 127.212 228.835 127.628 228.835 128.044 228.835 128.46 228.939 128.772 229.043 129.084 229.251 129.396 229.459 129.604 229.771 129.812 230.084 130.02 230.396 130.02 230.812 130.02L231.436 130.02C231.644 130.02 231.852 129.916 232.06 129.812L232.164 128.876C232.06 128.98 231.956 128.98 231.852 128.98 231.748 128.98 231.644 129.084 231.54 129.084L231.228 129.084C231.02 129.084 230.812 129.084 230.708 128.98 230.604 128.876 230.5 128.772 230.396 128.668 230.292 128.564 230.292 128.46 230.188 128.252L230.188 127.836C230.188 127.628 230.188 127.42 230.292 127.212 230.396 127.004 230.5 126.796 230.604 126.588 230.708 126.38 230.916 126.276 231.124 126.171 231.332 126.067 231.54 125.963 231.748 125.963 231.956 125.963 232.06 125.963 232.268 126.067 232.372 126.067 232.58 126.171 232.684 126.276L232.892 125.339ZM224.883 127.212C224.987 127.004 225.091 126.796 225.195 126.588 225.299 126.38 225.403 126.276 225.611 126.171 225.819 126.067 226.027 126.067 226.235 126.067 226.443 126.067 226.651 126.171 226.859 126.276 226.963 126.38 227.067 126.588 227.067 126.9L227.067 127.316 224.883 127.316 224.883 127.212ZM228.107 128.044C228.107 127.836 228.211 127.732 228.211 127.524L228.211 127.004C228.211 126.588 228.107 126.276 228.003 125.963 227.795 125.651 227.587 125.443 227.275 125.339 226.963 125.235 226.651 125.131 226.235 125.131 225.923 125.131 225.611 125.235 225.299 125.339 224.987 125.443 224.779 125.547 224.571 125.755 224.363 125.963 224.155 126.171 223.947 126.38 223.739 126.588 223.635 126.9 223.531 127.212 223.427 127.524 223.427 127.836 223.427 128.044 223.427 128.356 223.531 128.668 223.635 128.98 223.739 129.292 223.947 129.5 224.155 129.604 224.363 129.812 224.571 129.916 224.883 130.02 225.195 130.124 225.507 130.124 225.819 130.124 226.027 130.124 226.339 130.124 226.547 130.02 226.755 130.02 227.067 129.916 227.275 129.812L227.483 128.876C227.275 128.98 226.963 129.084 226.755 129.084 226.547 129.188 226.235 129.188 226.027 129.188 225.715 129.188 225.507 129.188 225.299 129.084 225.091 128.98 224.987 128.876 224.883 128.668 224.779 128.46 224.779 128.252 224.779 127.94L228.107 127.94 228.107 128.044ZM219.578 124.611 221.45 124.611 220.306 130.02 221.658 130.02 222.802 124.611 224.675 124.611 224.883 123.571 219.89 123.571 219.578 124.611ZM211.673 124.611 213.545 124.611 212.401 130.02 213.753 130.02 214.897 124.611 216.769 124.611 216.978 123.571 211.985 123.571 211.673 124.611ZM209.488 124.923C209.488 125.027 209.488 125.235 209.384 125.339 209.28 125.443 209.176 125.547 209.072 125.651 208.968 125.755 208.864 125.755 208.76 125.859 208.656 125.963 208.552 125.963 208.344 125.963 208.24 125.859 208.24 125.755 208.136 125.755 208.032 125.651 208.032 125.547 208.032 125.443 208.032 125.339 208.032 125.235 207.928 125.131 207.928 124.923 207.928 124.819 208.032 124.715 208.136 124.611 208.24 124.507 208.344 124.403 208.448 124.299 208.656 124.299 208.76 124.299L209.072 124.299C209.176 124.299 209.28 124.403 209.28 124.507 209.384 124.715 209.488 124.819 209.488 124.923ZM208.968 128.876C208.864 128.98 208.76 128.98 208.656 129.084 208.552 129.084 208.448 129.188 208.24 129.188L207.408 129.188C207.304 129.188 207.2 129.084 207.096 128.98 206.992 128.876 206.888 128.772 206.888 128.668 206.784 128.564 206.784 128.356 206.784 128.252 206.784 128.044 206.784 127.94 206.888 127.836 206.992 127.732 206.992 127.628 207.096 127.524 207.2 127.42 207.304 127.316 207.408 127.316 207.512 127.212 207.616 127.212 207.824 127.108L208.968 128.876ZM209.696 130.02 211.049 130.02 210.32 128.876C210.529 128.668 210.737 128.46 210.841 128.148 210.945 127.836 211.153 127.628 211.257 127.316 211.361 127.004 211.465 126.692 211.465 126.484L210.32 126.484C210.32 126.692 210.32 126.9 210.216 127.004 210.216 127.212 210.112 127.316 210.008 127.524 209.904 127.732 209.8 127.836 209.696 128.044L208.76 126.692C208.968 126.588 209.176 126.484 209.384 126.38 209.592 126.276 209.8 126.171 209.904 125.963 210.112 125.859 210.216 125.651 210.32 125.443 210.424 125.235 210.424 125.027 210.424 124.819 210.424 124.611 210.424 124.403 210.32 124.299 210.216 124.091 210.112 123.987 210.008 123.883 209.904 123.779 209.696 123.675 209.592 123.571 209.488 123.467 209.28 123.467 209.072 123.363 208.864 123.363 208.76 123.259 208.552 123.259 208.344 123.259 208.032 123.259 207.824 123.363 207.616 123.467 207.408 123.571 207.2 123.675 206.992 123.779 206.888 123.987 206.784 124.195 206.68 124.403 206.576 124.611 206.576 124.923 206.576 125.131 206.576 125.235 206.68 125.443 206.68 125.547 206.784 125.755 206.888 125.859 206.992 125.963 206.992 126.067 207.096 126.171 206.888 126.276 206.68 126.38 206.368 126.484 206.16 126.588 205.952 126.692 205.848 126.9 205.64 127.108 205.536 127.212 205.432 127.524 205.328 127.732 205.328 127.94 205.328 128.252 205.328 128.564 205.328 128.772 205.432 128.98 205.536 129.188 205.64 129.396 205.744 129.5 205.848 129.604 206.056 129.812 206.264 129.812 206.472 129.916 206.68 130.02 206.888 130.02 207.096 130.02 207.304 130.124 207.512 130.124L208.032 130.124C208.24 130.124 208.344 130.02 208.552 130.02 208.76 130.02 208.864 129.916 208.968 129.916 209.072 129.812 209.28 129.812 209.384 129.708L209.696 130.02ZM201.063 130.02 204.912 130.02 205.12 128.98 202.623 128.98 203.767 123.571 202.519 123.571 201.063 130.02Z" transform="matrix(1 0 0 1.00274 -47.4313 -40.4688)"/><path d="M95.2787 64.1779 81.2365 64.1779C78.012 64.1779 75.4116 61.5775 75.4116 58.353L75.4116 46.1831C75.4116 42.9586 78.012 40.3582 81.2365 40.3582L95.2787 40.3582C98.5032 40.3582 101.104 42.9586 101.104 46.1831L101.104 58.457C101.104 61.5775 98.5032 64.1779 95.2787 64.1779Z" fill="#41B0E4" fill-opacity="0.7" transform="matrix(1 0 0 1.00274 -47.4313 -40.4688)"/><path d="M114.522 74.5795 100.48 74.5795C97.255 74.5795 94.6546 71.9791 94.6546 68.7546L94.6546 56.4807C94.6546 53.2562 97.255 50.6558 100.48 50.6558L114.522 50.6558C117.746 50.6558 120.347 53.2562 120.347 56.4807L120.347 68.7546C120.347 71.9791 117.746 74.5795 114.522 74.5795Z" fill="#41B0E4" fill-opacity="0.7" transform="matrix(1 0 0 1.00274 -47.4313 -40.4688)"/><path d="M75.8277 74.5795 61.7855 74.5795C58.561 74.5795 55.9606 71.9791 55.9606 68.7546L55.9606 56.4807C55.9606 53.2562 58.561 50.6558 61.7855 50.6558L75.8277 50.6558C79.0522 50.6558 81.6526 53.2562 81.6526 56.4807L81.6526 68.7546C81.6526 71.9791 79.0522 74.5795 75.8277 74.5795Z" fill="#41B0E4" fill-opacity="0.7" transform="matrix(1 0 0 1.00274 -47.4313 -40.4688)"/><path d="M123.571 94.9667 109.529 94.9667C106.304 94.9667 103.704 92.3663 103.704 89.1418L103.704 76.9719C103.704 73.7474 106.304 71.147 109.529 71.147L123.571 71.147C126.796 71.147 129.396 73.7474 129.396 76.9719L129.396 89.2458C129.396 92.3663 126.796 94.9667 123.571 94.9667Z" fill="#41B0E4" fill-opacity="0.7" transform="matrix(1 0 0 1.00274 -47.4313 -40.4688)"/><path d="M67.2984 94.9667 53.2562 94.9667C50.0317 94.9667 47.4313 92.3663 47.4313 89.1418L47.4313 76.9719C47.4313 73.7474 50.0317 71.147 53.2562 71.147L67.2984 71.147C70.5229 71.147 73.1233 73.7474 73.1233 76.9719L73.1233 89.2458C73.1233 92.3663 70.4189 94.9667 67.2984 94.9667Z" fill="#41B0E4" fill-opacity="0.7" transform="matrix(1 0 0 1.00274 -47.4313 -40.4688)"/><path d="M114.73 114.314 100.688 114.314C97.4631 114.314 94.8626 111.713 94.8626 108.489L94.8626 96.3189C94.8626 93.0944 97.4631 90.494 100.688 90.494L114.73 90.494C117.954 90.494 120.555 93.0944 120.555 96.3189L120.555 108.593C120.555 111.713 117.954 114.314 114.73 114.314Z" fill="#41B0E4" fill-opacity="0.7" transform="matrix(1 0 0 1.00274 -47.4313 -40.4688)"/><path d="M75.6197 114.314 61.5775 114.314C58.353 114.314 55.7526 111.713 55.7526 108.489L55.7526 96.3189C55.7526 93.0944 58.353 90.494 61.5775 90.494L75.6197 90.494C78.8442 90.494 81.4446 93.0944 81.4446 96.3189L81.4446 108.593C81.4446 111.713 78.8442 114.314 75.6197 114.314Z" fill="#41B0E4" fill-opacity="0.7" transform="matrix(1 0 0 1.00274 -47.4313 -40.4688)"/><path d="M94.8626 125.131 80.9245 125.131C77.7 125.131 75.0996 122.531 75.0996 119.306L75.0996 107.033C75.0996 103.808 77.7 101.208 80.9245 101.208L94.9667 101.208C98.1912 101.208 100.792 103.808 100.792 107.033L100.792 119.306C100.688 122.427 98.0872 125.131 94.8626 125.131Z" fill="#41B0E4" fill-opacity="0.7" transform="matrix(1 0 0 1.00274 -47.4313 -40.4688)"/><path d="M142.294 125.131C142.086 125.027 141.878 124.923 141.67 124.923 141.358 124.923 140.942 125.027 140.942 125.443 140.942 126.067 142.19 126.067 142.19 127.004 142.19 127.524 141.774 128.148 140.942 128.148 140.526 128.148 140.214 128.044 139.902 127.94L140.11 127.42C140.318 127.524 140.63 127.628 140.838 127.628 141.358 127.628 141.67 127.316 141.67 127.004 141.67 126.276 140.422 126.38 140.422 125.339 140.422 124.715 141.046 124.299 141.67 124.299 141.982 124.299 142.294 124.403 142.502 124.507L142.294 125.131Z" transform="matrix(1 0 0 1.00274 -47.4313 -40.4688)"/><path d="M144.894 127.836C144.894 127.94 144.894 128.044 144.79 128.252L144.374 128.252 144.478 127.836C144.27 128.044 144.062 128.356 143.542 128.356 143.022 128.356 142.606 128.044 142.606 127.524 142.606 127.42 142.606 127.212 142.71 127.004L143.022 125.651 143.542 125.651 143.23 127.212 143.23 127.42C143.23 127.732 143.438 127.94 143.75 127.94 144.374 127.94 144.686 127.316 144.686 127.004L144.998 125.651 145.518 125.651 144.894 127.836Z" transform="matrix(1 0 0 1.00274 -47.4313 -40.4688)"/><path d="M146.559 124.299 147.079 124.299 146.663 125.859C146.871 125.651 147.183 125.547 147.495 125.547 148.119 125.547 148.431 125.963 148.431 126.588 148.431 127.524 148.015 128.356 147.079 128.356 146.559 128.356 146.351 128.148 146.143 127.836L146.039 128.252 145.622 128.252 146.559 124.299ZM147.079 127.94C147.599 127.94 148.015 127.316 148.015 126.588 148.015 126.171 147.807 125.963 147.391 125.963 146.767 125.963 146.455 126.588 146.455 127.212 146.455 127.524 146.663 127.94 147.079 127.94Z" transform="matrix(1 0 0 1.00274 -47.4313 -40.4688)"/><path d="M150.615 126.067C150.511 125.963 150.303 125.963 150.095 125.963 149.887 125.963 149.575 126.067 149.575 126.276 149.575 126.692 150.511 126.796 150.511 127.524 150.511 128.148 149.887 128.356 149.471 128.356 149.055 128.356 148.847 128.252 148.743 128.252L148.847 127.836C149.055 127.94 149.263 127.94 149.471 127.94 149.783 127.94 149.991 127.836 149.991 127.524 149.991 127.108 149.055 127.004 149.055 126.38 149.055 125.859 149.575 125.547 150.095 125.547 150.303 125.547 150.615 125.651 150.823 125.651L150.615 126.067Z" transform="matrix(1 0 0 1.00274 -47.4313 -40.4688)"/><path d="M151.551 125.547 152.071 125.547 151.551 128.252 151.031 128.252 151.551 125.547ZM152.176 125.027 151.655 125.027 151.759 124.507 152.28 124.507 152.176 125.027Z" transform="matrix(1 0 0 1.00274 -47.4313 -40.4688)"/><path d="M154.88 127.316C154.776 127.628 154.776 127.94 154.776 128.148L154.36 128.148C154.36 128.044 154.36 127.836 154.464 127.732 154.256 128.044 153.944 128.252 153.528 128.252 152.904 128.252 152.592 127.732 152.592 127.108 152.592 126.276 153.112 125.443 153.944 125.443 154.256 125.443 154.672 125.547 154.776 125.963L155.088 124.299 155.608 124.299 154.88 127.316ZM153.632 127.94C154.256 127.94 154.568 127.212 154.568 126.692 154.568 126.276 154.36 125.963 153.944 125.963 153.32 125.963 153.112 126.692 153.112 127.212 152.904 127.524 153.112 127.94 153.632 127.94Z" transform="matrix(1 0 0 1.00274 -47.4313 -40.4688)"/><path d="M156.128 125.547 156.648 125.547 156.128 128.252 155.608 128.252 156.128 125.547ZM156.752 125.027 156.232 125.027 156.336 124.507 156.856 124.507 156.752 125.027Z" transform="matrix(1 0 0 1.00274 -47.4313 -40.4688)"/><path d="M157.584 125.651C157.792 125.547 158.104 125.547 158.312 125.547 158.833 125.547 159.353 125.755 159.353 126.38L159.353 126.796C159.249 127.316 159.145 127.836 159.041 128.252L158.624 128.252 158.729 127.836C158.52 128.148 158.208 128.356 157.896 128.356 157.48 128.356 157.064 128.148 157.064 127.628 157.064 126.9 157.792 126.692 158.624 126.692L158.937 126.692 158.937 126.484C158.937 126.067 158.729 125.963 158.312 125.963 158 125.963 157.688 126.067 157.48 126.171L157.584 125.651ZM158.416 127.004C158 127.004 157.48 127.108 157.48 127.628 157.48 127.836 157.688 127.94 157.896 127.94 158.416 127.94 158.729 127.42 158.729 127.004L158.416 127.004Z" transform="matrix(1 0 0 1.00274 -47.4313 -40.4688)"/><path d="M160.393 125.963C160.393 125.859 160.497 125.755 160.497 125.547L160.913 125.547 160.809 125.963C160.913 125.755 161.225 125.443 161.745 125.443L161.953 125.443 161.849 125.859 161.641 125.859C161.017 125.859 160.705 126.484 160.705 126.796L160.393 128.148 159.873 128.148 160.393 125.963Z" transform="matrix(1 0 0 1.00274 -47.4313 -40.4688)"/><path d="M161.641 128.98 161.849 128.98C162.161 128.98 162.369 128.772 162.577 128.356L162.161 125.547 162.681 125.547 162.993 127.628 164.137 125.547 164.657 125.547 162.889 128.668C162.681 129.084 162.473 129.292 161.953 129.292L161.537 129.292 161.641 128.98Z" transform="matrix(1 0 0 1.00274 -47.4313 -40.4688)"/><path d="M167.57 125.547C168.298 125.547 168.714 125.963 168.714 126.692 168.714 127.628 168.194 128.356 167.258 128.356 166.53 128.356 166.01 127.94 166.01 127.212 166.01 126.171 166.53 125.547 167.57 125.547ZM167.258 127.94C167.778 127.94 168.194 127.316 168.194 126.692 168.194 126.276 167.986 125.963 167.466 125.963 166.842 125.963 166.53 126.692 166.53 127.212 166.53 127.524 166.738 127.94 167.258 127.94Z" transform="matrix(1 0 0 1.00274 -47.4313 -40.4688)"/><path d="M169.858 125.963 169.234 125.963 169.338 125.547 169.962 125.547 170.066 125.235C170.17 124.819 170.378 124.195 171.106 124.195 171.21 124.195 171.314 124.195 171.522 124.299L171.418 124.715 171.21 124.611C170.794 124.611 170.69 124.923 170.586 125.235L170.586 125.443 171.314 125.443 171.21 125.859 170.482 125.859 169.962 128.148 169.442 128.148 169.858 125.963Z" transform="matrix(1 0 0 1.00274 -47.4313 -40.4688)"/><path d="M161.121 70.6269C161.121 71.7711 160.913 72.9153 160.497 73.9554 160.081 74.9956 159.457 75.9317 158.52 76.7639 157.688 77.596 156.752 78.2201 155.608 78.6361 154.568 79.0522 153.424 79.2602 152.28 79.2602 151.135 79.2602 149.991 79.0522 148.847 78.6361 147.807 78.2201 146.767 77.596 145.935 76.7639 145.102 75.9317 144.478 74.9956 144.062 73.9554 143.646 72.9153 143.438 71.7711 143.438 70.6269 143.438 69.4827 143.646 68.3386 144.062 67.2984 144.478 66.2582 145.102 65.3221 145.935 64.49 146.767 63.6578 147.703 63.0337 148.847 62.6177 149.887 62.2016 151.031 61.9936 152.28 61.9936 153.424 61.9936 154.568 62.2016 155.712 62.6177 156.752 63.0337 157.688 63.6578 158.624 64.49 159.457 65.3221 160.081 66.2582 160.601 67.2984 160.809 68.3386 161.121 69.4827 161.121 70.6269ZM158.312 70.6269C158.312 69.7948 158.208 68.9627 157.896 68.2345 157.584 67.5064 157.168 66.7783 156.544 66.2582 156.024 65.6341 155.296 65.2181 154.568 64.906 153.84 64.594 153.008 64.3859 152.28 64.3859 151.551 64.3859 150.719 64.49 149.991 64.802 149.263 65.1141 148.639 65.5301 148.015 66.1542 147.391 66.7783 146.975 67.4024 146.663 68.1305 146.351 68.8586 146.247 69.6908 146.247 70.5229 146.247 71.355 146.351 72.1871 146.663 72.9153 146.975 73.6434 147.391 74.3715 148.015 74.8916 148.639 75.5157 149.263 75.9317 149.991 76.2438 150.719 76.5558 151.447 76.6598 152.28 76.6598 153.112 76.6598 153.84 76.5558 154.568 76.2438 155.296 75.9317 155.92 75.5157 156.544 74.8916 157.168 74.2675 157.584 73.6434 157.896 72.9153 158.208 72.1871 158.312 71.459 158.312 70.6269Z" fill="#78797A" transform="matrix(1 0 0 1.00274 -47.4313 -40.4688)"/><path d="M170.586 71.459 170.586 78.8442 168.09 78.8442 168.09 62.3056 171.835 62.3056C172.979 62.3056 173.811 62.4096 174.435 62.5137 175.059 62.6177 175.579 62.9297 175.995 63.2418 176.515 63.6578 176.931 64.1779 177.139 64.802 177.451 65.4261 177.555 66.1542 177.555 66.8823 177.555 68.2345 177.243 69.2747 176.619 70.0028 175.995 70.7309 175.059 71.251 173.811 71.355L179.532 78.8442 176.515 78.8442 171.002 71.459 170.586 71.459ZM170.794 69.3787 171.314 69.3787C172.771 69.3787 173.707 69.1707 174.123 68.8586 174.539 68.5466 174.851 67.9225 174.851 67.0904 174.851 66.1542 174.643 65.5301 174.123 65.1141 173.603 64.698 172.667 64.594 171.314 64.594L170.794 64.594 170.794 69.3787Z" fill="#78797A" transform="matrix(1 0 0 1.00274 -47.4313 -40.4688)"/><path d="M198.255 66.3623C197.527 65.7382 196.694 65.2181 195.862 64.906 195.03 64.594 194.094 64.3859 193.158 64.3859 191.39 64.3859 189.829 65.01 188.789 66.1542 187.645 67.2984 187.125 68.8586 187.125 70.6269 187.125 72.3952 187.645 73.8514 188.789 75.0996 189.933 76.2438 191.286 76.8679 192.95 76.8679 193.886 76.8679 194.822 76.6598 195.758 76.3478 196.694 76.0357 197.527 75.5157 198.359 74.7876L198.359 77.804C197.631 78.3241 196.798 78.7402 195.966 78.9482 195.134 79.1562 194.198 79.3643 193.158 79.3643 191.91 79.3643 190.765 79.1562 189.621 78.7402 188.581 78.3241 187.645 77.7 186.813 76.8679 185.981 76.0357 185.357 75.0996 184.941 74.0594 184.524 73.0193 184.316 71.8751 184.316 70.6269 184.316 69.3787 184.524 68.2345 184.941 67.1944 185.357 66.1542 185.981 65.2181 186.813 64.3859 187.645 63.5538 188.581 62.9297 189.621 62.5137 190.661 62.0976 191.806 61.8896 193.054 61.8896 193.99 61.8896 194.926 61.9936 195.862 62.3056 196.694 62.6177 197.631 63.0337 198.463 63.5538L198.255 66.3623Z" fill="#78797A" transform="matrix(1 0 0 1.00274 -47.4313 -40.4688)"/><path d="M205.536 78.8442 205.536 62.3056 208.24 62.3056 208.24 68.4426 216.353 68.4426 216.353 62.3056 219.058 62.3056 219.058 78.8442 216.353 78.8442 216.353 70.8349 208.24 70.8349 208.24 78.8442 205.536 78.8442Z" fill="#78797A" transform="matrix(1 0 0 1.00274 -47.4313 -40.4688)"/><path d="M226.859 78.8442 226.859 62.3056 236.116 62.3056 236.116 64.594 229.563 64.594 229.563 68.7546 236.116 68.7546 236.116 71.147 229.563 71.147 229.563 76.4518 236.116 76.4518 236.116 78.8442 226.859 78.8442Z" fill="#78797A" transform="matrix(1 0 0 1.00274 -47.4313 -40.4688)"/><path d="M242.149 75.5157 244.334 74.4755C244.542 75.2036 244.958 75.8277 245.478 76.1398 245.998 76.5558 246.726 76.7639 247.558 76.7639 248.39 76.7639 249.014 76.5558 249.431 76.1398 249.847 75.7237 250.159 75.0996 250.159 74.3715 250.159 73.4353 249.327 72.4992 247.766 71.7711 247.558 71.6671 247.35 71.5631 247.246 71.5631 245.374 70.6269 244.23 69.8988 243.606 69.1707 242.982 68.4426 242.669 67.6104 242.669 66.5703 242.669 65.2181 243.086 64.1779 244.022 63.2418 244.958 62.4096 246.102 61.9936 247.662 61.9936 248.91 61.9936 249.951 62.2016 250.679 62.7217 251.511 63.2418 252.031 63.8659 252.343 64.802L250.263 65.8422C249.951 65.3221 249.535 64.906 249.223 64.698 248.91 64.49 248.39 64.3859 247.87 64.3859 247.142 64.3859 246.622 64.594 246.102 64.906 245.686 65.3221 245.478 65.7382 245.478 66.4663 245.478 67.5064 246.414 68.3386 248.286 69.2747 248.39 69.3787 248.494 69.3787 248.598 69.4827 250.263 70.2108 251.407 70.939 251.927 71.6671 252.551 72.3952 252.863 73.3313 252.863 74.3715 252.863 75.9317 252.343 77.1799 251.407 78.1161 250.471 79.0522 249.118 79.4683 247.454 79.4683 245.998 79.4683 244.854 79.1562 244.022 78.5321 243.19 77.908 242.461 76.7639 242.149 75.5157Z" fill="#78797A" transform="matrix(1 0 0 1.00274 -47.4313 -40.4688)"/><path d="M265.137 64.594 265.137 78.8442 262.433 78.8442 262.433 64.594 258.064 64.594 258.064 62.3056 269.506 62.3056 269.506 64.594 265.137 64.594Z" fill="#78797A" transform="matrix(1 0 0 1.00274 -47.4313 -40.4688)"/><path d="M278.035 71.459 278.035 78.8442 275.539 78.8442 275.539 62.3056 279.283 62.3056C280.427 62.3056 281.259 62.4096 281.884 62.5137 282.508 62.6177 283.028 62.9297 283.444 63.2418 283.964 63.6578 284.38 64.1779 284.588 64.802 284.9 65.4261 285.004 66.1542 285.004 66.8823 285.004 68.2345 284.692 69.2747 284.068 70.0028 283.444 70.7309 282.508 71.251 281.259 71.355L286.98 78.8442 283.964 78.8442 278.451 71.459 278.035 71.459ZM278.139 69.3787 278.659 69.3787C280.115 69.3787 281.051 69.1707 281.467 68.8586 281.884 68.5466 282.196 67.9225 282.196 67.0904 282.196 66.1542 281.988 65.5301 281.467 65.1141 280.947 64.698 280.011 64.594 278.659 64.594L278.139 64.594 278.139 69.3787Z" fill="#78797A" transform="matrix(1 0 0 1.00274 -47.4313 -40.4688)"/><path d="M303.311 78.8442 301.439 74.5795 294.886 74.5795 293.013 78.8442 290.205 78.8442 298.214 61.5775 306.223 78.8442 303.311 78.8442ZM295.926 72.3952 300.502 72.3952 298.838 68.6506C298.734 68.4426 298.63 68.1305 298.526 67.8185 298.422 67.5064 298.318 67.1944 298.214 66.7783 298.11 67.0904 298.006 67.5064 297.902 67.8185 297.798 68.1305 297.694 68.4426 297.59 68.6506L295.926 72.3952Z" fill="#78797A" transform="matrix(1 0 0 1.00274 -47.4313 -40.4688)"/><path d="M148.431 103.08 148.431 88.5177 143.854 88.5177 143.854 86.6454 154.984 86.6454 154.984 88.5177 150.407 88.5177 150.407 102.976 148.431 102.976 148.431 103.08Z" fill="#929296" transform="matrix(1 0 0 1.00274 -47.4313 -40.4688)"/><path d="M158 103.08 158 86.6454 166.634 86.6454 166.634 88.4137 159.977 88.4137 159.977 93.0944 166.634 93.0944 166.634 94.8626 159.977 94.8626 159.977 101.104 166.634 101.104 166.634 102.872 158 102.872 158 103.08Z" fill="#929296" transform="matrix(1 0 0 1.00274 -47.4313 -40.4688)"/><path d="M184.108 90.598C183.276 89.7659 182.444 89.1418 181.612 88.7257 180.676 88.3096 179.74 88.1016 178.7 88.1016 177.867 88.1016 177.035 88.3096 176.203 88.6217 175.371 88.9337 174.643 89.4538 174.019 90.0779 173.395 90.702 172.875 91.4301 172.563 92.2622 172.251 93.0944 172.043 93.9265 172.043 94.9667 172.043 95.6948 172.147 96.4229 172.355 97.047 172.563 97.6711 172.771 98.2952 173.187 98.8153 173.811 99.7514 174.643 100.48 175.579 101 176.515 101.52 177.555 101.728 178.7 101.728 179.74 101.728 180.676 101.52 181.612 101.104 182.548 100.688 183.276 100.063 184.108 99.1273L184.108 101.728C183.276 102.352 182.444 102.768 181.508 103.08 180.572 103.392 179.636 103.496 178.596 103.496 177.763 103.496 176.931 103.392 176.099 103.08 175.267 102.768 174.539 102.456 173.811 101.936 172.667 101.104 171.731 100.063 171.106 98.9193 170.482 97.6711 170.17 96.4229 170.17 94.9667 170.17 93.7185 170.378 92.5743 170.794 91.5341 171.21 90.494 171.835 89.5578 172.771 88.7257 173.603 87.8936 174.539 87.2695 175.579 86.9574 176.619 86.5414 177.659 86.3333 178.908 86.3333 179.844 86.3333 180.78 86.4373 181.612 86.7494 182.548 87.0614 183.38 87.4775 184.212 88.1016L184.212 90.598 184.108 90.598Z" fill="#929296" transform="matrix(1 0 0 1.00274 -47.4313 -40.4688)"/><path d="M188.269 103.08 188.269 86.6454 190.245 86.6454 190.245 92.8864 198.983 92.8864 198.983 86.6454 200.959 86.6454 200.959 102.976 198.983 102.976 198.983 94.7586 190.245 94.7586 190.245 102.976 188.269 102.976 188.269 103.08Z" fill="#929296" transform="matrix(1 0 0 1.00274 -47.4313 -40.4688)"/><path d="M205.64 103.08 205.64 86.0213 217.602 99.1273 217.602 86.6454 219.474 86.6454 219.474 103.6 207.512 90.702 207.512 102.976 205.64 102.976 205.64 103.08Z" fill="#929296" transform="matrix(1 0 0 1.00274 -47.4313 -40.4688)"/><path d="M240.901 94.8626C240.901 96.0068 240.693 97.151 240.277 98.1912 239.861 99.2313 239.237 100.167 238.405 101 237.573 101.832 236.637 102.456 235.596 102.872 234.556 103.288 233.412 103.496 232.268 103.496 231.124 103.496 229.98 103.288 228.939 102.872 227.899 102.456 226.963 101.832 226.131 101 225.299 100.167 224.675 99.2313 224.259 98.1912 223.843 97.151 223.635 96.0068 223.635 94.8626 223.635 93.7185 223.843 92.5743 224.259 91.5341 224.675 90.494 225.299 89.5578 226.131 88.7257 226.963 87.8936 227.899 87.2695 228.939 86.8534 229.98 86.4373 231.124 86.2293 232.268 86.2293 233.412 86.2293 234.556 86.4373 235.596 86.8534 236.637 87.2695 237.573 87.8936 238.405 88.7257 239.237 89.5578 239.861 90.494 240.277 91.5341 240.693 92.5743 240.901 93.7185 240.901 94.8626ZM232.164 101.624C233.1 101.624 233.932 101.416 234.764 101.104 235.596 100.792 236.324 100.271 236.949 99.6474 237.573 99.0233 238.093 98.2952 238.405 97.4631 238.717 96.6309 238.925 95.7988 238.925 94.8626 238.925 93.9265 238.717 93.0944 238.405 92.2622 238.093 91.4301 237.573 90.702 236.949 90.0779 236.324 89.4538 235.596 88.9337 234.764 88.6217 233.932 88.3096 233.1 88.1016 232.164 88.1016 231.228 88.1016 230.396 88.3096 229.563 88.6217 228.731 88.9337 228.003 89.4538 227.379 90.0779 226.755 90.702 226.235 91.4301 225.923 92.2622 225.611 93.0944 225.403 93.9265 225.403 94.8626 225.403 95.7988 225.611 96.6309 225.923 97.4631 226.235 98.2952 226.755 99.0233 227.379 99.6474 228.003 100.271 228.731 100.792 229.563 101.104 230.396 101.416 231.228 101.624 232.164 101.624Z" fill="#929296" transform="matrix(1 0 0 1.00274 -47.4313 -40.4688)"/><path d="M244.958 103.08 244.958 86.6454 246.934 86.6454 246.934 101.104 253.071 101.104 253.071 102.976 244.958 102.976 244.958 103.08Z" fill="#929296" transform="matrix(1 0 0 1.00274 -47.4313 -40.4688)"/><path d="M272.106 94.8626C272.106 96.0068 271.898 97.151 271.482 98.1912 271.066 99.2313 270.442 100.167 269.61 101 268.777 101.832 267.841 102.456 266.801 102.872 265.761 103.288 264.617 103.496 263.473 103.496 262.329 103.496 261.184 103.288 260.144 102.872 259.104 102.456 258.168 101.832 257.336 101 256.504 100.167 255.88 99.2313 255.463 98.1912 255.047 97.151 254.839 96.0068 254.839 94.8626 254.839 93.7185 255.047 92.5743 255.463 91.5341 255.88 90.494 256.504 89.5578 257.336 88.7257 258.168 87.8936 259.104 87.2695 260.144 86.8534 261.184 86.4373 262.329 86.2293 263.473 86.2293 264.617 86.2293 265.761 86.4373 266.801 86.8534 267.841 87.2695 268.777 87.8936 269.61 88.7257 270.442 89.5578 271.066 90.494 271.482 91.5341 271.898 92.5743 272.106 93.7185 272.106 94.8626ZM263.369 101.624C264.305 101.624 265.137 101.416 265.969 101.104 266.801 100.792 267.529 100.271 268.153 99.6474 268.777 99.0233 269.298 98.2952 269.61 97.4631 269.922 96.6309 270.13 95.7988 270.13 94.8626 270.13 93.9265 269.922 93.0944 269.61 92.2622 269.298 91.4301 268.777 90.702 268.153 90.0779 267.529 89.4538 266.801 88.9337 265.969 88.6217 265.137 88.3096 264.305 88.1016 263.369 88.1016 262.433 88.1016 261.6 88.3096 260.768 88.6217 259.936 88.9337 259.208 89.4538 258.584 90.0779 257.96 90.702 257.44 91.4301 257.128 92.2622 256.816 93.0944 256.608 93.9265 256.608 94.8626 256.608 95.7988 256.816 96.6309 257.128 97.4631 257.44 98.2952 257.96 99.0233 258.584 99.6474 259.208 100.271 259.936 100.792 260.768 101.104 261.6 101.416 262.537 101.624 263.369 101.624Z" fill="#929296" transform="matrix(1 0 0 1.00274 -47.4313 -40.4688)"/><path d="M285.004 94.5506 291.869 94.5506 291.869 95.0707C291.869 97.6711 291.141 99.6474 289.685 101.208 288.229 102.664 286.252 103.392 283.756 103.392 283.028 103.392 282.3 103.288 281.572 103.184 280.843 102.976 280.219 102.768 279.595 102.456 278.243 101.728 277.203 100.688 276.475 99.4394 275.747 98.1912 275.331 96.6309 275.331 94.9667 275.331 93.6145 275.539 92.3663 275.955 91.2221 276.371 90.0779 277.099 89.1418 277.931 88.3096 278.659 87.5815 279.491 87.0614 280.531 86.7494 281.572 86.4373 282.612 86.2293 283.756 86.2293 285.316 86.2293 286.668 86.5414 287.812 87.0614 288.957 87.5815 289.893 88.5177 290.725 89.6618L289.061 91.0141C288.437 89.9739 287.708 89.2458 286.876 88.8297 286.044 88.3096 285.004 88.1016 283.86 88.1016 281.988 88.1016 280.427 88.7257 279.283 89.9739 278.139 91.2221 277.515 92.8864 277.515 94.9667 277.515 96.943 278.139 98.5032 279.283 99.7514 280.531 101 281.988 101.624 283.86 101.624 285.524 101.624 286.876 101.104 287.916 100.167 288.957 99.1273 289.581 97.8791 289.685 96.3189L285.004 96.3189 285.004 94.5506Z" fill="#929296" transform="matrix(1 0 0 1.00274 -47.4313 -40.4688)"/><path d="M298.838 103.08 298.838 95.5908 293.325 86.7494 295.614 86.7494 299.878 93.8225 304.143 86.7494 306.327 86.7494 300.814 95.5908 300.814 103.08 298.838 103.08Z" fill="#929296" transform="matrix(1 0 0 1.00274 -47.4313 -40.4688)"/></g></svg>